<svg width="82" height="102" viewBox="0 0 82 102" fill="none" xmlns="http://www.w3.org/2000/svg">
<g filter="url(#filter0_b_94_185)">
<path fill-rule="evenodd" clip-rule="evenodd" d="M65.3468 70.9425C80.6214 58.5347 84.3323 36.3311 73.3153 19.5107C61.5551 1.55556 37.4659 -3.46639 19.5108 8.29387C1.55563 20.0541 -3.46632 44.1432 8.29394 62.0984C8.38553 62.2382 8.47788 62.3773 8.57096 62.5156L8.56703 62.5151L32.5908 99.1938L65.3468 70.9425Z" fill="white" fill-opacity="0.2"/>
<path d="M65.3468 70.9425L64.3662 69.7353L64.3484 69.7497L64.331 69.7647L65.3468 70.9425ZM8.57096 62.5156L8.38683 64.0599L11.7558 64.4616L9.86115 61.6471L8.57096 62.5156ZM8.56703 62.5151L8.75117 60.9708L5.43754 60.5757L7.26598 63.3673L8.56703 62.5151ZM32.5908 99.1938L31.2898 100.046L32.2624 101.531L33.6066 100.372L32.5908 99.1938ZM72.0143 20.3629C82.5899 36.5093 79.0282 57.8251 64.3662 69.7353L66.3274 72.1496C82.2145 59.2442 86.0748 36.1529 74.6164 18.6586L72.0143 20.3629ZM20.363 9.59492C37.5996 -1.69471 60.7246 3.12628 72.0143 20.3629L74.6164 18.6586C62.3855 -0.015147 37.3323 -5.23808 18.6586 6.99282L20.363 9.59492ZM9.59499 61.2462C-1.69464 44.0096 3.12634 20.8845 20.363 9.59492L18.6586 6.99282C-0.0150805 19.2237 -5.23801 44.2768 6.99288 62.9506L9.59499 61.2462ZM9.86115 61.6471C9.77172 61.5142 9.683 61.3806 9.59499 61.2462L6.99288 62.9506C7.08807 63.0959 7.18403 63.2404 7.28077 63.3841L9.86115 61.6471ZM8.3829 64.0595L8.38683 64.0599L8.7551 60.9712L8.75117 60.9708L8.3829 64.0595ZM33.8919 98.3417L9.86808 61.6629L7.26598 63.3673L31.2898 100.046L33.8919 98.3417ZM64.331 69.7647L31.5751 98.0161L33.6066 100.372L66.3626 72.1202L64.331 69.7647Z" fill="white" fill-opacity="0.86"/>
</g>
<defs>
<filter id="filter0_b_94_185" x="-7.55061" y="-7.55079" width="96.7106" height="117.014" filterUnits="userSpaceOnUse" color-interpolation-filters="sRGB">
<feFlood flood-opacity="0" result="BackgroundImageFix"/>
<feGaussianBlur in="BackgroundImageFix" stdDeviation="3.96598"/>
<feComposite in2="SourceAlpha" operator="in" result="effect1_backgroundBlur_94_185"/>
<feBlend mode="normal" in="SourceGraphic" in2="effect1_backgroundBlur_94_185" result="shape"/>
</filter>
</defs>
</svg>
