<svg width="47" height="47" viewBox="0 0 47 47" fill="none" xmlns="http://www.w3.org/2000/svg">
<path d="M36.66 6.24158H31.02C28.9434 6.24158 27.26 7.92499 27.26 10.0016V15.6416C27.26 17.7182 28.9434 19.4016 31.02 19.4016H36.66C38.7367 19.4016 40.42 17.7182 40.42 15.6416V10.0016C40.42 7.92499 38.7367 6.24158 36.66 6.24158Z" stroke="#CFC5FF" stroke-width="2.82" stroke-linecap="round" stroke-linejoin="round"/>
<path d="M15.9801 6.24158H10.3401C8.26349 6.24158 6.58008 7.92499 6.58008 10.0016V15.6416C6.58008 17.7182 8.26349 19.4016 10.3401 19.4016H15.9801C18.0567 19.4016 19.7401 17.7182 19.7401 15.6416V10.0016C19.7401 7.92499 18.0567 6.24158 15.9801 6.24158Z" stroke="#CFC5FF" stroke-width="2.82" stroke-linecap="round" stroke-linejoin="round"/>
<path d="M36.66 26.9216H31.02C28.9434 26.9216 27.26 28.605 27.26 30.6816V36.3216C27.26 38.3983 28.9434 40.0816 31.02 40.0816H36.66C38.7367 40.0816 40.42 38.3983 40.42 36.3216V30.6816C40.42 28.605 38.7367 26.9216 36.66 26.9216Z" stroke="#CFC5FF" stroke-width="2.82" stroke-linecap="round" stroke-linejoin="round"/>
<path d="M15.9801 26.9216H10.3401C8.26349 26.9216 6.58008 28.605 6.58008 30.6816V36.3216C6.58008 38.3983 8.26349 40.0816 10.3401 40.0816H15.9801C18.0567 40.0816 19.7401 38.3983 19.7401 36.3216V30.6816C19.7401 28.605 18.0567 26.9216 15.9801 26.9216Z" stroke="#CFC5FF" stroke-width="2.82" stroke-linecap="round" stroke-linejoin="round"/>
</svg>
