<svg width="59" height="61" viewBox="0 0 59 61" fill="none" xmlns="http://www.w3.org/2000/svg">
<g filter="url(#filter0_b_173_219)">
<path fill-rule="evenodd" clip-rule="evenodd" d="M41.6074 44.5819C49.7208 37.9925 51.6922 26.1996 45.8409 17.266C39.5952 7.73029 26.8018 5.06319 17.266 11.3089C7.73028 17.5546 5.06319 30.348 11.3089 39.8838C11.3576 39.958 11.4066 40.0319 11.4561 40.1054L11.4538 40.1051L24.2125 59.5847L41.6074 44.5819Z" fill="white" fill-opacity="0.11"/>
<path d="M41.6074 44.5819L41.0867 43.9407L41.0772 43.9484L41.068 43.9564L41.6074 44.5819ZM11.4561 40.1054L11.3581 40.9255L13.1477 41.1392L12.1413 39.6441L11.4561 40.1054ZM11.4538 40.1051L11.5517 39.2849L9.79161 39.0748L10.7628 40.5577L11.4538 40.1051ZM24.2125 59.5847L23.5216 60.0372L24.0381 60.8259L24.752 60.2101L24.2125 59.5847ZM45.1499 17.7186C50.7668 26.2943 48.8747 37.6156 41.0867 43.9407L42.1282 45.2231C50.5669 38.3694 52.6176 26.105 46.5318 16.8135L45.1499 17.7186ZM17.7186 11.9999C26.8727 6.00411 39.1541 8.56447 45.1499 17.7186L46.5318 16.8135C40.0362 6.8961 26.7308 4.12228 16.8134 10.6179L17.7186 11.9999ZM11.9999 39.4312C6.00411 30.2771 8.56447 17.9956 17.7186 11.9999L16.8134 10.6179C6.8961 17.1136 4.12227 30.419 10.6179 40.3363L11.9999 39.4312ZM12.1413 39.6441C12.0938 39.5735 12.0466 39.5026 11.9999 39.4312L10.6179 40.3363C10.6685 40.4135 10.7195 40.4903 10.7709 40.5666L12.1413 39.6441ZM11.3559 40.9253L11.3581 40.9255L11.554 39.2852L11.5517 39.2849L11.3559 40.9253ZM24.9035 59.1321L12.1448 39.6525L10.7628 40.5577L23.5216 60.0372L24.9035 59.1321ZM41.068 43.9564L23.6731 58.9592L24.752 60.2101L42.1469 45.2074L41.068 43.9564Z" fill="white" fill-opacity="0.86"/>
</g>
<circle cx="28.5764" cy="27.229" r="13.2159" fill="white"/>
<path d="M33.6526 33.4912H30.1958V28.6404H20.5871V26.9677L27.4079 20.1468H33.6526V23.6037H28.8576L27.2964 25.1649H33.6526V33.4912Z" fill="#A092E1"/>
<defs>
<filter id="filter0_b_173_219" x="2.89414" y="2.89401" width="51.3616" height="62.1444" filterUnits="userSpaceOnUse" color-interpolation-filters="sRGB">
<feFlood flood-opacity="0" result="BackgroundImageFix"/>
<feGaussianBlur in="BackgroundImageFix" stdDeviation="2.10628"/>
<feComposite in2="SourceAlpha" operator="in" result="effect1_backgroundBlur_173_219"/>
<feBlend mode="normal" in="SourceGraphic" in2="effect1_backgroundBlur_173_219" result="shape"/>
</filter>
</defs>
</svg>
