<svg width="45" height="48" viewBox="0 0 45 48" fill="none" xmlns="http://www.w3.org/2000/svg">
<g clip-path="url(#clip0_173_420)">
<g filter="url(#filter0_d_173_420)">
<path d="M41.8561 23.5831C41.8561 23.5831 41.8561 23.5739 41.8561 23.5694C41.8193 13.0491 33.2213 4.5 22.6572 4.5C12.0931 4.5 3.49285 13.0491 3.45605 23.5694C3.45605 23.5694 3.45605 23.5785 3.45605 23.5831C3.45605 23.5831 3.45605 23.5923 3.45605 23.5969C3.45605 23.5969 3.45605 23.6014 3.45605 23.6037C3.45605 23.606 3.45605 23.6083 3.45605 23.6106C3.45605 23.6106 3.45605 23.6198 3.45605 23.6244C3.45605 23.6244 3.45605 23.6335 3.45605 23.6381C3.46065 24.6695 3.54804 25.6803 3.709 26.6658C5.11402 35.8246 13.0543 42.8656 22.6204 42.9C22.6204 42.9 22.6296 42.9 22.6342 42.9C22.6342 42.9 22.6434 42.9 22.648 42.9C22.648 42.9 22.6526 42.9 22.6549 42.9C22.6572 42.9 22.6595 42.9 22.6618 42.9C22.6618 42.9 22.671 42.9 22.6756 42.9C22.6756 42.9 22.6848 42.9 22.6894 42.9C32.2555 42.8633 40.1958 35.8223 41.6008 26.6635C41.7618 25.6757 41.8515 24.6649 41.8538 23.6358C41.8538 23.6358 41.8538 23.6267 41.8538 23.6221C41.8538 23.6221 41.8538 23.6129 41.8538 23.6083C41.8538 23.6083 41.8538 23.6037 41.8538 23.6014C41.8538 23.5992 41.8538 23.5969 41.8538 23.5946C41.8538 23.5946 41.8538 23.5854 41.8538 23.5808L41.8561 23.5831ZM23.1516 42.2812C22.986 42.2858 22.8228 42.2926 22.6549 42.2926C22.487 42.2926 22.3238 42.2835 22.1582 42.2812C21.2683 41.5592 20.3991 38.9647 19.8081 35.0201C20.7371 35.1027 21.6868 35.1485 22.6526 35.1485C23.6184 35.1485 24.5681 35.1049 25.4971 35.0201C24.9085 38.9669 24.0369 41.5592 23.147 42.2812H23.1516ZM22.6549 34.7359C21.6661 34.7359 20.6957 34.6901 19.7483 34.603C19.4608 32.5631 19.2493 30.1795 19.1435 27.523C20.3071 27.5689 21.4821 27.5918 22.6549 27.5918C23.8277 27.5918 25.0027 27.5689 26.1663 27.523C26.0605 30.1795 25.849 32.5631 25.5615 34.603C24.6141 34.6901 23.6437 34.7359 22.6549 34.7359ZM22.6549 27.177C21.4338 27.177 20.2588 27.154 19.1274 27.1128C19.0906 26.0378 19.0699 24.9216 19.0699 23.7642C19.0699 22.4898 19.0952 21.2682 19.1412 20.0947C20.268 20.0534 21.4384 20.0305 22.6549 20.0305C23.8714 20.0305 25.0441 20.0534 26.1686 20.0947C26.2146 21.2682 26.2399 22.4898 26.2399 23.7642C26.2399 24.9216 26.2192 26.0378 26.1824 27.1128C25.0533 27.154 23.8783 27.177 22.6549 27.177ZM33.6306 20.3239C31.4805 20.0214 29.0591 19.8105 26.5618 19.7028C26.4491 17.2022 26.2307 14.7842 25.9202 12.6434C28.1715 12.8795 30.2848 13.3517 32.1842 14.0186C32.881 15.9233 33.3777 18.0525 33.6306 20.3239ZM32.6763 14.1997C37.5145 16.0195 40.8604 19.1114 41.3685 22.6778C40.3016 21.6876 37.5674 20.9084 34.0514 20.3858C33.81 18.1694 33.3386 16.0837 32.6763 14.1997ZM22.6549 5.03862C23.6828 5.05008 24.7521 7.69733 25.4511 12.1828C24.5382 12.1025 23.6046 12.059 22.6549 12.059C21.7052 12.059 20.7716 12.1025 19.8587 12.1828C20.56 7.69733 21.6293 5.05237 22.6549 5.03862ZM22.6549 12.4715C23.6276 12.4715 24.5819 12.5151 25.5132 12.5999C25.8122 14.6306 26.0375 17.0143 26.1525 19.6844C24.9935 19.6386 23.8208 19.6157 22.6526 19.6157C21.4844 19.6157 20.3117 19.6386 19.1527 19.6844C19.2677 17.0143 19.493 14.6306 19.792 12.5999C20.7233 12.5151 21.6799 12.4715 22.6503 12.4715H22.6549ZM25.8582 12.2217C25.3339 8.80436 24.5612 6.15482 23.5862 5.10967C27.1022 5.60703 30.1606 8.83644 31.9956 13.5236C30.1192 12.891 28.0519 12.444 25.8582 12.2217ZM19.4539 12.2217C17.2602 12.444 15.1906 12.891 13.3165 13.5236C15.1538 8.83644 18.2099 5.60703 21.7259 5.10967C20.7509 6.15482 19.9782 8.80436 19.4539 12.2217ZM19.3919 12.6434C19.0814 14.7842 18.863 17.2022 18.7503 19.7028C16.253 19.8105 13.8316 20.0214 11.6815 20.3239C11.9345 18.0525 12.4312 15.9233 13.1279 14.0186C15.0273 13.3517 17.1429 12.8795 19.3919 12.6434ZM11.2584 20.3835C7.7424 20.9084 5.00824 21.6853 3.94126 22.6755C4.44946 19.1091 7.79528 16.0173 12.6335 14.1974C11.9712 16.0814 11.4998 18.1671 11.2584 20.3835ZM3.90446 23.7642C3.90446 23.6404 3.91136 23.5166 3.91366 23.3929C4.26319 22.4211 6.91916 21.4401 11.2147 20.7892C11.1227 21.7587 11.0744 22.7511 11.0744 23.7642C11.0744 24.6626 11.1158 25.5473 11.1871 26.4137C6.87547 25.7582 4.2195 24.7681 3.90446 23.7917C3.90446 23.7825 3.90446 23.7733 3.90446 23.7642ZM11.4883 23.7642C11.4883 22.7305 11.5412 21.7174 11.6378 20.7273C13.6798 20.4362 16.0644 20.2185 18.7342 20.1085C18.6859 21.3186 18.6583 22.5425 18.6583 23.7619C18.6583 24.8735 18.679 25.9897 18.7204 27.0944C16.0437 26.9844 13.6522 26.7667 11.6079 26.4733C11.5297 25.5886 11.4883 24.6833 11.4883 23.7619V23.7642ZM26.5802 20.1107C29.2477 20.2208 31.6346 20.4385 33.6766 20.7296C33.7732 21.7174 33.8261 22.7328 33.8261 23.7665C33.8261 24.6878 33.7847 25.5909 33.7065 26.4779C31.6622 26.7713 29.2684 26.9913 26.594 27.099C26.6354 25.9943 26.6561 24.8781 26.6561 23.7665C26.6561 22.5471 26.6308 21.3209 26.5802 20.113V20.1107ZM34.0974 20.7915C38.3929 21.4424 41.0489 22.4234 41.3984 23.3952C41.4007 23.5189 41.4076 23.6404 41.4076 23.7665C41.4076 23.7756 41.4076 23.7848 41.4076 23.794C41.0926 24.7704 38.4366 25.7605 34.125 26.416C34.1986 25.5496 34.2377 24.6649 34.2377 23.7665C34.2377 22.7557 34.1894 21.761 34.0974 20.7915ZM32.4969 13.7C30.9631 9.6226 28.5256 6.56508 25.6489 5.28615C33.4765 6.55592 39.6922 12.6664 41.1018 20.4225C39.7405 17.5827 36.62 15.1876 32.4969 13.6978V13.7ZM19.6586 5.28615C16.7819 6.56508 14.3467 9.6226 12.8106 13.7C8.68751 15.1898 5.56703 17.585 4.2057 20.4247C5.61532 12.6641 11.831 6.55592 19.6586 5.28615ZM11.2216 26.8171C11.4355 29.0105 11.877 31.0802 12.5024 32.9596C7.7355 31.1352 4.44486 28.0662 3.93896 24.5297C5.00134 25.5175 7.7217 26.2922 11.2193 26.8171H11.2216ZM11.6447 26.879C13.8017 27.1838 16.23 27.3947 18.7342 27.5047C18.8377 29.9915 19.0446 32.4073 19.3436 34.5595C17.0601 34.3165 14.917 33.8306 12.9991 33.1453C12.3369 31.2429 11.8724 29.1297 11.6447 26.879ZM19.4034 34.9789C19.9047 38.394 20.6474 41.0893 21.5902 42.2628C21.2959 42.2468 21.0015 42.2239 20.7095 42.1941C17.5338 41.2475 14.8181 38.0547 13.1716 33.6335C15.071 34.2867 17.1705 34.7497 19.4034 34.9789ZM23.7196 42.2628C24.6624 41.0893 25.4052 38.394 25.9065 34.9789C28.137 34.7474 30.2388 34.2867 32.1382 33.6335C30.4917 38.0547 27.776 41.2475 24.6003 42.1941C24.3083 42.2239 24.0139 42.2468 23.7196 42.2628ZM25.9662 34.5595C26.2652 32.4073 26.4721 29.9915 26.5756 27.5047C29.0821 27.397 31.5104 27.1838 33.6651 26.879C33.4397 29.1274 32.9729 31.2429 32.3107 33.1453C30.3906 33.8306 28.2474 34.3165 25.9639 34.5595H25.9662ZM34.0882 26.8194C37.5881 26.2968 40.3062 25.5198 41.3685 24.532C40.865 28.0662 37.5743 31.1352 32.8051 32.9619C33.4328 31.0825 33.8721 29.0128 34.0859 26.8194H34.0882ZM4.11602 26.5925C5.41296 29.4873 8.52654 31.9351 12.6772 33.4616C14.0983 37.4313 16.3634 40.4842 19.0607 41.9488C11.3964 40.4636 5.38307 34.3211 4.11602 26.6062C4.11602 26.6017 4.11602 26.5971 4.11602 26.5925ZM26.2468 41.9488C28.9464 40.4865 31.2092 37.4336 32.6303 33.4616C36.781 31.9351 39.8946 29.485 41.1915 26.5925C41.1915 26.5971 41.1915 26.6017 41.1915 26.6062C39.9244 34.3211 33.9111 40.4636 26.2468 41.9488Z" fill="#97E9FF"/>
</g>
</g>
<defs>
<filter id="filter0_d_173_420" x="-4.54395" y="-3.5" width="54.3999" height="54.3999" filterUnits="userSpaceOnUse" color-interpolation-filters="sRGB">
<feFlood flood-opacity="0" result="BackgroundImageFix"/>
<feColorMatrix in="SourceAlpha" type="matrix" values="0 0 0 0 0 0 0 0 0 0 0 0 0 0 0 0 0 0 127 0" result="hardAlpha"/>
<feOffset/>
<feGaussianBlur stdDeviation="4"/>
<feComposite in2="hardAlpha" operator="out"/>
<feColorMatrix type="matrix" values="0 0 0 0 0.725 0 0 0 0 0.941071 0 0 0 0 1 0 0 0 1 0"/>
<feBlend mode="normal" in2="BackgroundImageFix" result="effect1_dropShadow_173_420"/>
<feBlend mode="normal" in="SourceGraphic" in2="effect1_dropShadow_173_420" result="shape"/>
</filter>
<clipPath id="clip0_173_420">
<rect width="45" height="48" fill="white"/>
</clipPath>
</defs>
</svg>
